<svg width="1621" height="728" viewBox="0 0 1621 728" fill="none" xmlns="http://www.w3.org/2000/svg">
<g id="Overlay">
<g id="tongue">
<path d="M1016.5 184L967.5 150L901.5 106.5L883 97.5L871 95.5L864 96.1829L850.5 97.5L840 103.5H837.5L832 101L856.5 85.5L864 96.1829L871 95.5L883 97.5L954.5 58.5L947.5 41L967.5 30.5L972 29H985.5L1014 15.5H1016.5L1039 0H1041L1046 58.5V96.1829L1036.5 128.5L1034.5 138.5L1016.5 184Z" fill="#D4BE1B" style="mix-blend-mode:color"/>
<path d="M429.5 318L434 314.5L440.5 316L431.5 323.5L428.5 320.5L429.5 318Z" fill="#D4BE1B" style="mix-blend-mode:color"/>
<path d="M472.5 306.5L465.5 318L481 310.5L485.5 305.5L472.5 306.5Z" fill="#D4BE1B" style="mix-blend-mode:color"/>
<path d="M519.5 287L506 283L536 267.5L519.5 287Z" fill="#D4BE1B" style="mix-blend-mode:color"/>
<path d="M561.5 267.5L571 254.5L583 257L561.5 267.5Z" fill="#D4BE1B" style="mix-blend-mode:color"/>
<path d="M615.5 236L599 231.5L620 220L636.5 211.5L615.5 236Z" fill="#D4BE1B" style="mix-blend-mode:color"/>
<path d="M658.5 215.5L667.5 203.5L678 206L658.5 215.5Z" fill="#D4BE1B" style="mix-blend-mode:color"/>
<path d="M735 169.5L742.5 155.5L755.5 159.5L735 169.5Z" fill="#D4BE1B" style="mix-blend-mode:color"/>
<path d="M778.5 138.5L771 136.5L780.5 131.5L778.5 138.5Z" fill="#D4BE1B" style="mix-blend-mode:color"/>
<path d="M705.5 186L691.5 183L713.5 167L705.5 186Z" fill="#D4BE1B" style="mix-blend-mode:color"/>
</g>
<g id="foot">
<path d="M1565 394.5H1549L1550.5 402L1534 408.5L1495 421.5L1405 443.5L1333 460.5L1313 463.5L1294.5 467.5L1275.5 471L1257 476L1196.5 485.5L1108.5 494L946 508.5L889 513.5L811 519.5L708.5 523.5L643 527L583 532.5L456 542L390.5 543.5L350.5 546.5L305 554L203 555H145L99.5 553L66 545L25 531.5L18 519V495L20 485L23.5 468L20 455L17 456.5L10 463.5L2 492.5L0 516.5L6.5 548.5L21.5 580.5L43 601.5L79 627.5L129 654L185 675L294 702.5L405.5 718.5L526 726.5L651.5 728H783.5H911L1017 725.5L1131.5 724.5L1270.5 721L1349.5 707.5L1396.5 699L1451 686L1527 657L1560.5 634.5L1603.5 593L1614.5 570L1620.5 539V516.5L1614.5 496L1606 478.5L1565 394.5Z" fill="#D4BE1B" style="mix-blend-mode:color"/>
</g>
<g id="tongue-emblem">
<path d="M882.5 71L946 40.5L954.5 58.5L882.5 97.5L871 96H864L857 85L882.5 71Z" fill="#D4BE1B" style="mix-blend-mode:color"/>
</g>
<g id="lace">
<path d="M881.5 169.5H871L823 128.5L806.5 115.5L805 134L808.5 141.5L813 148L832 143L836.5 150.5L796 172L784 169.5L779 186L773 180L777 169.5L760.5 155.5L744 153.5L733 172L729 193.5L731 202V207.5L700.5 222.5V212.25H694L678 200H667.5L650 222.5L642.5 242.5V251.5L609.5 267L597 278L594.5 274.5L596 268L604 259L594.5 251.5H574.5H571.5L557.5 269L545 289.5L543 297.5V304L517.5 317L513.5 318V311.5V298.5L505.5 309H502L497.5 305.5L486.5 304L472 305.5L465 318L457.5 321L452.5 332.2L463 334L465 341.5L451 344.5L428 356.5H413.5L409.5 351.5L404 339V331L408 322.5L425 311.5L434.5 314L429 317L428 321L433.5 324.5L440.5 318L457.5 298.5L479.5 286L502 283L520 287.5L537.5 267L551 253.5L566.5 241L582.5 232.5L597 231.5L615.652 237L616.5 235L640 207.5L661 190.5L678 183L699 184.5L706.25 185.75L712 169.5L723.5 150.5L747 136.5H766L780.5 138.75L782 119L796 103.5L813 96.5L825 99.5L830.5 101.5L834.5 103.5L877 141.5L887 158.5L881.5 169.5Z" fill="#ED1414" style="mix-blend-mode:color"/>
<path d="M382.5 351.5L371.5 356.5L364 351.5V344.5L368 337L376 335.5L387.5 337L390.5 339L383.5 340.5L378.5 338.5L377.5 341.5L382.5 351.5Z" fill="#ED1414" style="mix-blend-mode:color"/>
</g>
<g id="emblem">
<path d="M711 347L874 261.5C879.6 261.5 878.333 266.167 877 268.5L791.5 329.5L708.5 384.5C698.667 388.667 677.7 397.3 672.5 398.5C667.3 399.7 658.667 399 655 398.5C649.5 397.833 637.2 394.3 632 385.5C626.8 376.7 629.833 360.167 632 353L646.5 322L651 320L655 322C654.667 324.833 653 333 658.5 343.5C663.607 353.249 679.333 355.5 687.5 355L711 347Z" fill="#86C331" style="mix-blend-mode:color"/>
</g>
<g id="upper">
<path d="M1515.5 275.5L1507 279H1503.78L1504.5 280.5L1510.5 279L1522.5 327L1543 380.5L1550.5 402L1526 411.5L1515.27 414.527L1496.5 421.5L1461.59 429.677L1444.5 434.5L1359.5 454L1262.5 475L1196.5 485L1066 497.5L917 511L819 518L765 520L703 524L635 527.5L598 531L528 536L470.5 541L413.5 542.5L354.453 546.323L319.333 551.868L306 554.5H270.5L147 555.5L106.67 553.284L99 553L93.1304 551.478L79.5 549L39.5 537.5L37.3571 536.5L34 535.5L30.0102 533.071L24.5 530.5L23.9899 529.407L22.5 528.5L20.5659 522.07L17.5 515.5L17.6875 512.5L19 491.5L19.375 490L24.2857 470.357L23.4787 466.053L21.5 455.5L31.5 441.5L42 431L58.5 419.5L95.5 403.5L136.5 393L197 381.5L312 358L337.5 353.5L339.5 358L347.5 363L362.5 367L382.5 370L416 368L440.5 363L501 342.5L545 328L548.5 338H556L591 324L660 293L735 259L828.5 216.5H838L884 225L887.5 223L924 205L981.5 173.5L993.5 171L1021 189.5L1060.5 206L1156.5 227H1206L1225.5 222L1269.5 200L1318 171L1347 147.5L1393 98L1418 77L1419 74L1432 77L1455 111V120L1461 145.5L1468 157L1472.5 173.5L1488 225L1490 250.5L1494.24 259.28L1492 254.5V240.5L1488 205.5L1472.5 167.5L1470.5 155L1458.5 115L1449 97.5L1432 72.5H1420L1425.5 68L1435 65L1439 66.5L1451 83.5L1458.5 104.5L1468 135L1501.5 225L1503.5 240.5L1507 252L1515.5 275.5Z" fill="#B91717" style="mix-blend-mode:color"/>
</g>
<g id="upper-2">
<path d="M342 359L338 353L351.5 349L364 346.5V351.5L371.5 356.5L382.5 351.5L377.5 341.5L378.5 338.5L383 340.5L390.5 339L395 338.5L401.5 333.5L404 332.5V339L409 351L413 356.5H428L451 344.5L456.5 343.5L465 341.5L462.5 334L452.5 332L457.5 321.5L463 318.5L464.5 319.5L482 310.5L486.5 304.5L497.5 305.5L502 309H505.5L513.5 298.5V311L512 315.5L513.5 318.5L543.5 304L543 296.5L545.5 288.5L559.5 267L561.5 268L594.5 252L604 259L596 267.5L594.5 274.5L597 278L609.5 267.5L642.5 251.5V243L650 222.5L656 215.5L659 216L679.5 206L678 200L694 212L700.5 212.5L701 223L731 208V202L729 193.5L733 172L734.5 170L756.5 158.5V154.5L761 156L764 158.5L777 169.5L773 180L779 186L784.5 169.5L795.5 172L836.5 150.5L831.5 143L813 148L809.5 143L805 134.5L806.5 116L825 130.5L871 169.5L882 169L886.5 158L877.5 142L871 136L837.5 105.5L850.5 98.5C869.3 93.3 886.333 99 892.5 102.5L993 169L882.5 224.5L827 216.5L556.5 338.5L549.5 336.5L544 328L456 359L413.5 369H373.5L342 359Z" fill="#0A56FB" style="mix-blend-mode:color"/>
</g>
</g>
</svg>
